<svg xmlns="http://www.w3.org/2000/svg" width="272.13" height="272.13" viewBox="0 0 272.13 272.12"><path d="M136.06 0C60.92 0 0 60.92 0 136.06c0 75.15 60.92 136.06 136.06 136.06 66 0 121-46.97 133.43-109.31l1.02-.35-.8-.79c1.58-8.3 2.42-16.85 2.42-25.6C272.13 60.91 211.2 0 136.06 0zm0 18.84c34.43 0 65.39 14.84 86.84 38.47l-33.14 11.4-4.22 38.16-14.92-43.34C166.89 52.7 157 43.98 140.95 49.51L98.37 64.17l11.2 32.5 10.83-3.72c7.5-2.6 11.9.25 14.56 7.1 4.06 12.65 33.58 97.52 33.58 97.52l43.12-14.85-11.2-32.5 26.84 27.11 20.96-7.2c-14.6 48.12-59.3 83.16-112.2 83.16-64.74 0-117.22-52.49-117.22-117.23 0-2.77.1-5.52.3-8.25l15.47-5.33 29.85 86.69c3.73 10.83 18.76 17.77 29.08 14.22l64.8-22.31-11.2-32.5-32.37 11.14c-7.06 2.07-11.92-.3-14.57-7.1L77.82 107.6l21.67-7.46-11.2-32.5L29.12 88c18.35-40.78 59.34-69.17 106.96-69.17zm95.13 48.72a116.68 116.68 0 0121.74 77.69l-28.23-27.62z" fill="#231f20"/></svg>